<svg xmlns="http://www.w3.org/2000/svg" viewBox="0 0 800 200">
  <!-- Background -->
  <rect width="800" height="200" fill="#0d1117"/>
  
  <!-- Grid Pattern -->
  <path d="M0 40 H800 M0 80 H800 M0 120 H800 M0 160 H800 M40 0 V200 M80 0 V200 M120 0 V200 M160 0 V200 M200 0 V200 M240 0 V200 M280 0 V200 M320 0 V200 M360 0 V200 M400 0 V200 M440 0 V200 M480 0 V200 M520 0 V200 M560 0 V200 M600 0 V200 M640 0 V200 M680 0 V200 M720 0 V200 M760 0 V200" stroke="#1f2937" stroke-width="1"/>
  
  <!-- Cybersecurity Elements -->
  <circle cx="150" cy="100" r="40" fill="none" stroke="#58a6ff" stroke-width="2" opacity="0.7"/>
  <circle cx="650" cy="100" r="40" fill="none" stroke="#58a6ff" stroke-width="2" opacity="0.7"/>
  
  <!-- Lock Icon -->
  <rect x="380" y="80" width="40" height="35" rx="5" fill="#58a6ff" opacity="0.8"/>
  <rect x="390" y="50" width="20" height="35" rx="10" fill="none" stroke="#58a6ff" stroke-width="3"/>
  
  <!-- Binary Data Streams -->
  <text x="50" y="50" font-family="monospace" font-size="10" fill="#58a6ff" opacity="0.5">01001100 01001111 01000011 01001011</text>
  <text x="500" y="50" font-family="monospace" font-size="10" fill="#58a6ff" opacity="0.5">01010011 01000101 01000011 01010101 01010010 01000101</text>
  <text x="100" y="150" font-family="monospace" font-size="10" fill="#58a6ff" opacity="0.5">01000011 01011001 01000010 01000101 01010010</text>
  <text x="450" y="150" font-family="monospace" font-size="10" fill="#58a6ff" opacity="0.5">01010000 01010010 01001111 01010100 01000101 01000011 01010100</text>
  
  <!-- Connection Lines -->
  <path d="M190 100 H350 M450 100 H610" stroke="#58a6ff" stroke-width="2" stroke-dasharray="5,5" opacity="0.7"/>
  
  <!-- Title -->
  <text x="400" y="190" font-family="Arial, sans-serif" font-size="16" fill="#ffffff" text-anchor="middle">CYBERSECURITY PORTFOLIO</text>
</svg>